<svg id="Layer_1" data-name="Layer 1" xmlns="http://www.w3.org/2000/svg" width="52.5" height="20" viewBox="0 0 52.5 20"><defs><style>.cls-1{fill:none;stroke:#303030;stroke-miterlimit:10;}.cls-2{fill:#303030;}</style></defs><title>icon COD</title><g id="icon_COD" data-name="icon COD"><polygon class="cls-1" points="49.75 19.5 11.75 19.5 13.75 0.5 51.75 0.5 49.75 19.5"/><path class="cls-2" d="M21.1514,14.335a3.3654,3.3654,0,0,1-1.3868-1.41,4.5506,4.5506,0,0,1-.4853-2.1543,5.1773,5.1773,0,0,1,.5459-2.4355,3.8913,3.8913,0,0,1,1.542-1.6143,4.6055,4.6055,0,0,1,2.3281-.57,5.2057,5.2057,0,0,1,1.62.2461,3.8435,3.8435,0,0,1,1.3194.7265L25.94,8.4551a4.0352,4.0352,0,0,0-1.0567-.6123A3.1736,3.1736,0,0,0,23.7666,7.65a2.3129,2.3129,0,0,0-1.9014.834,3.5245,3.5245,0,0,0-.6787,2.2861,2.8779,2.8779,0,0,0,.5528,1.9024,1.9852,1.9852,0,0,0,1.6074.6542,4.1647,4.1647,0,0,0,2.2685-.8046l.4922,1.332a3.36,3.36,0,0,1-1.23.708,4.8631,4.8631,0,0,1-1.6016.2646A4.359,4.359,0,0,1,21.1514,14.335Z"/><path class="cls-2" d="M28.85,14.3467a3.4041,3.4041,0,0,1-1.416-1.41,4.4745,4.4745,0,0,1-.4981-2.166,5.4463,5.4463,0,0,1,.5157-2.43,3.8143,3.8143,0,0,1,1.47-1.626,4.181,4.181,0,0,1,2.2021-.5761,4.5281,4.5281,0,0,1,2.16.4922,3.4018,3.4018,0,0,1,1.4219,1.41,4.4744,4.4744,0,0,1,.498,2.166,5.3945,5.3945,0,0,1-.5215,2.43,3.8721,3.8721,0,0,1-1.4707,1.626,4.17,4.17,0,0,1-2.208.5762A4.4878,4.4878,0,0,1,28.85,14.3467Zm3.8516-1.8115a3.8079,3.8079,0,0,0,.63-2.3282A2.9145,2.9145,0,0,0,32.7617,8.28a2.2077,2.2077,0,0,0-3.33.1689,3.8357,3.8357,0,0,0-.624,2.3213,2.9311,2.9311,0,0,0,.5635,1.9258,1.9883,1.9883,0,0,0,1.62.6787A2.026,2.026,0,0,0,32.7012,12.5352Z"/><path class="cls-2" d="M36.6553,6.2588h3.2636a4.7522,4.7522,0,0,1,2.2022.4795,3.3762,3.3762,0,0,1,1.4277,1.3681,4.2271,4.2271,0,0,1,.4981,2.1006,5.0563,5.0563,0,0,1-.5459,2.43,3.6581,3.6581,0,0,1-1.584,1.5479,5.3819,5.3819,0,0,1-2.49.5342H35.9951Zm2.6152,6.9482a2.929,2.929,0,0,0,2.1963-.7441,3.1488,3.1488,0,0,0,.72-2.2686,2.4056,2.4056,0,0,0-.6357-1.8056,2.5825,2.5825,0,0,0-1.8721-.6182H38.4072l-.4209,5.4365Z"/><line class="cls-1" x1="10.25" y1="8" x2="0.25" y2="8"/><line class="cls-1" x1="9.25" y1="12" x2="3.25" y2="12"/></g></svg>